<svg width="242" height="200" viewBox="0 0 242 200" fill="none" xmlns="http://www.w3.org/2000/svg" style="width: 100%; height: 100%;">
<g clip-path="url(#clip0_35_2878)">
<path d="M214.547 53.56C219.56 52.853 223.824 48.492 224.42 43.465C223.995 47.794 226.679 52.248 230.705 53.894C228.643 54.011 226.818 55.431 225.762 57.205C224.705 58.979 224.311 61.068 224.117 63.124C224.007 58.028 219.455 53.433 214.547 53.56Z" stroke="#010101" stroke-width="1.5" stroke-linecap="round" stroke-linejoin="round"></path>
<path d="M0.75 25.864C8.766 24.733 15.585 17.76 16.537 9.721C15.857 16.644 20.149 23.765 26.587 26.398C23.29 26.585 20.372 28.857 18.682 31.693C16.992 34.53 16.362 37.87 16.052 41.157C15.875 33.009 8.597 25.662 0.75 25.864Z" stroke="#010101" stroke-width="1.5" stroke-linecap="round" stroke-linejoin="round"></path>
<path d="M169.352 152.475C174.367 141.526 179.381 130.577 184.396 119.629C187.907 111.964 191.809 103.848 199.025 99.49C202.918 97.139 208.308 96.253 211.794 99.174C214.245 101.227 215.108 104.585 215.607 107.744C218.099 123.496 214.754 140.104 205.432 153.926C193.235 154.309 180.274 153.137 169.353 152.476L169.352 152.475Z" fill="#55D087" stroke="#010101" stroke-width="1.5" stroke-linecap="round" stroke-linejoin="round"></path>
<path d="M206.396 102.82C202.318 119.5 197.264 135.942 191.267 152.032" stroke="#010101" stroke-width="1.5" stroke-linecap="round" stroke-linejoin="round"></path>
<path d="M198.545 154.079C203.227 145.2 207.921 136.302 213.539 127.984C217.583 121.997 222.449 116.062 229.224 113.555C231.619 112.669 234.387 112.276 236.665 113.431C239.241 114.737 240.559 117.711 240.947 120.573C241.789 126.796 239.183 132.943 236.235 138.487C233.447 143.728 230.298 148.776 225.647 153.986C214.649 153.979 206.864 154.083 198.546 154.079H198.545Z" fill="#55D087" stroke="#010101" stroke-width="1.5" stroke-linecap="round" stroke-linejoin="round"></path>
<path d="M233.726 115.231C227.762 128.28 220.878 140.908 213.14 152.99L233.726 115.231Z" fill="#55D087"></path>
<path d="M233.726 115.231C227.762 128.28 220.878 140.908 213.14 152.99" stroke="#010101" stroke-width="1.5" stroke-linecap="round" stroke-linejoin="round"></path>
<path d="M184.884 154.079C184.884 127.716 184.983 101.66 182.621 68.105C182.496 66.323 182.258 57.58 172.625 59.906C142.186 67.255 108.05 73.424 98.631 75.698C91.499 77.42 95.244 65.109 87.277 67.312C79.874 69.36 61.111 74.49 53.88 77.079C52.494 77.575 48.834 79.954 49.6 84.798C51.611 97.512 52.86 107.442 56.959 119.041C68.78 139.205 106.75 150.899 184.884 154.079Z" fill="#010101" stroke="#010101" stroke-width="1.5" stroke-linecap="round" stroke-linejoin="round"></path>
<path d="M175.561 120.934C177.397 86.504 183.527 42.451 187.338 8.183C158.011 3.551 130.121 1.361 102.196 0.75C97.278 36.318 90.266 72.562 90.075 109.971C116.225 114.835 147.526 119.499 175.561 120.934Z" fill="white" stroke="#010101" stroke-width="1.5" stroke-linecap="round" stroke-linejoin="round"></path>
<path d="M113.701 40.732C131.013 43.305 148.374 45.542 165.773 47.44" stroke="#010101" stroke-width="1.5" stroke-linecap="round" stroke-linejoin="round"></path>
<path d="M114.622 28.588C131.934 31.161 149.295 33.398 166.694 35.296" stroke="#010101" stroke-width="1.5" stroke-linecap="round" stroke-linejoin="round"></path>
<path d="M116.13 15.848C133.442 18.421 150.803 20.658 168.202 22.556" stroke="#010101" stroke-width="1.5" stroke-linecap="round" stroke-linejoin="round"></path>
<path d="M113.721 51.262C131.241 53.335 148.76 55.409 166.28 57.482" stroke="#010101" stroke-width="1.5" stroke-linecap="round" stroke-linejoin="round"></path>
<path d="M113.495 62.665C130.864 64.38 148.219 66.239 165.558 68.24" stroke="#010101" stroke-width="1.5" stroke-linecap="round" stroke-linejoin="round"></path>
<path d="M112.759 73.28C130.231 76.338 147.799 78.852 165.428 80.816" stroke="#010101" stroke-width="1.5" stroke-linecap="round" stroke-linejoin="round"></path>
<path d="M112.623 84.968C117.473 85.087 122.319 85.396 127.145 85.892" stroke="#010101" stroke-width="1.5" stroke-linecap="round" stroke-linejoin="round"></path>
<path d="M132.349 101.105C133.344 97.761 134.95 94.376 137.877 92.478C140.804 90.579 145.31 90.812 147.216 93.735C148.318 95.425 148.354 97.57 148.354 99.588C149.721 99.335 150.702 98.181 151.71 97.224C152.718 96.267 154.126 95.401 155.427 95.891C156.385 96.252 156.942 97.228 157.713 97.901C159.16 99.165 161.248 99.285 163.169 99.343" stroke="#010101" stroke-width="1.5" stroke-linecap="round" stroke-linejoin="round"></path>
<path d="M170.717 129.485C163.191 90.798 157.754 40.249 152.463 1.193C118.658 4.203 82.78 7.173 53.795 13.304C58.22 54.108 62.706 99.538 72.883 141.07C103.229 139.201 139.232 135.679 170.717 129.485Z" fill="#E3E3FF" stroke="#010101" stroke-width="1.5" stroke-linecap="round" stroke-linejoin="round"></path>
<path d="M79.8521 57.736C94.8891 56.117 105.007 54.006 105.007 54.006" stroke="#010101" stroke-width="1.5" stroke-linecap="round" stroke-linejoin="round"></path>
<path d="M77.501 44.014C97.411 42.059 103.346 41.108 103.346 41.108" stroke="#010101" stroke-width="1.5" stroke-linecap="round" stroke-linejoin="round"></path>
<path d="M75.635 29.468C95.545 27.513 101.816 25.738 101.816 25.738" stroke="#010101" stroke-width="1.5" stroke-linecap="round" stroke-linejoin="round"></path>
<path d="M82.7991 69.406C102.801 66.839 122.803 64.273 142.805 61.706" stroke="#010101" stroke-width="1.5" stroke-linecap="round" stroke-linejoin="round"></path>
<path d="M85.715 82.112C105.451 79.19 125.21 76.431 144.992 73.835" stroke="#010101" stroke-width="1.5" stroke-linecap="round" stroke-linejoin="round"></path>
<path d="M87.847 94.087C112.712 90.836 123.406 88.542 146.112 85.573" stroke="#010101" stroke-width="1.5" stroke-linecap="round" stroke-linejoin="round"></path>
<path d="M90.943 107.085C96.354 105.87 101.813 104.867 107.302 104.077" stroke="#010101" stroke-width="1.5" stroke-linecap="round" stroke-linejoin="round"></path>
<path d="M117.296 119.499C117.471 115.514 118.311 111.316 121.03 108.398C123.749 105.48 128.809 104.487 131.734 107.198C133.425 108.766 134.061 111.135 134.621 113.372C136.067 112.712 136.834 111.16 137.686 109.818C138.538 108.476 139.859 107.126 141.438 107.308C142.6 107.442 143.489 108.37 144.531 108.902C146.486 109.902 148.836 109.455 150.981 108.985" stroke="#010101" stroke-width="1.5" stroke-linecap="round" stroke-linejoin="round"></path>
<path d="M46.533 85.628C44.089 86.259 42.562 88.682 43.061 91.156C48.635 118.767 54.21 142.55 59.784 170.608C60.224 172.821 60.719 175.15 62.223 176.833C65.115 180.069 70.229 179.543 74.496 178.751C108.492 172.438 142.488 166.125 176.484 159.813C179.473 159.258 182.85 158.434 184.301 155.762C185.304 153.915 185.085 151.673 184.832 149.587C181.858 125.07 177.924 100.67 173.043 76.461C172.528 73.908 171.873 71.139 169.823 69.533C167.295 67.552 163.683 68.099 160.54 68.762C139.803 73.132 106.703 81.943 94.702 85.18C92.189 85.858 89.603 84.383 88.902 81.877L87.806 77.959C87.077 75.354 84.329 73.882 81.76 74.729C73.248 77.534 55.361 83.349 46.531 85.63L46.533 85.628Z" fill="#050604" stroke="#010101" stroke-width="1.5" stroke-linecap="round" stroke-linejoin="round"></path>
<path d="M142.055 52.922C140.881 41.563 139.223 30.255 137.085 19.037C128.109 20.411 118.36 22.005 108.674 23.916C111.823 35.216 113.609 46.507 114.841 57.814C124.221 56.45 133.569 54.859 142.055 52.922Z" fill="white" stroke="#010101" stroke-width="1.5" stroke-linecap="round" stroke-linejoin="round"></path>
<path d="M136.293 19.524C130.176 32.729 122.813 45.307 115.269 57.752" stroke="#010101" stroke-width="1.5" stroke-linecap="round" stroke-linejoin="round"></path>
<path d="M108.674 23.916C112.782 28.484 132.158 45.937 141.012 52.382" stroke="#010101" stroke-width="1.5" stroke-linecap="round" stroke-linejoin="round"></path>
<path d="M65.351 105.265C59.856 104.411 54.181 106.029 49.218 108.551C40.603 112.928 33.773 121.265 32.485 130.835C31.922 135.017 32.401 139.297 33.586 143.334C35.235 148.936 38.299 154.094 42.363 158.285C37.383 165.532 31.264 174.699 19.086 191.906C18.695 192.458 18.789 193.224 19.301 193.667C21.564 195.624 23.541 196.932 25.99 198.639C26.58 199.05 27.398 198.904 27.814 198.318C36.582 185.942 43.462 176.197 51.208 165.035C51.552 165.216 51.896 165.396 52.244 165.57C62.566 170.693 69.18 166.92 72.199 165.559C80.176 161.934 88.292 155.243 90.77 146.066C93.877 134.536 93.515 109.616 65.35 105.267L65.351 105.265ZM81.551 142.655C79.888 148.804 74.462 153.281 69.115 155.709C67.093 156.625 62.665 159.147 55.755 155.718C49.783 152.755 45.147 147.227 43.26 140.837C42.466 138.126 42.149 135.26 42.525 132.466C43.381 126.05 47.957 120.466 53.733 117.536C57.046 115.848 60.85 114.77 64.529 115.333C83.388 118.245 83.634 134.939 81.552 142.656L81.551 142.655Z" fill="white" stroke="#010101" stroke-width="1.5" stroke-linecap="round" stroke-linejoin="round"></path>
</g>
<defs>
<clipPath id="clip0_35_2878">
<rect width="241.857" height="199.621" fill="white"></rect>
</clipPath>
</defs>
</svg>