<svg width="264" height="165" viewBox="0 0 264 165" fill="none" xmlns="http://www.w3.org/2000/svg" style="width: 100%; height: 100%;">
<g clip-path="url(#clip0_35_3067)">
<path d="M39.1481 14.772C46.1111 13.79 52.0341 7.733 52.8611 0.75C52.2711 6.763 58.1511 12.41 63.7441 14.698C60.8811 14.86 56.1931 17.372 54.7251 19.836C53.2571 22.3 52.7101 25.201 52.4411 28.057C52.2881 20.979 45.9651 14.597 39.1491 14.773L39.1481 14.772Z" stroke="#010101" stroke-width="1.5" stroke-linecap="round" stroke-linejoin="round"></path>
<path d="M245.54 119.423C250.347 118.745 254.436 114.564 255.007 109.743C254.599 113.894 258.659 117.793 262.52 119.372C260.543 119.484 257.307 121.218 256.293 122.919C255.28 124.62 254.902 126.623 254.716 128.594C254.61 123.708 250.245 119.301 245.54 119.423Z" stroke="#010101" stroke-width="1.5" stroke-linecap="round" stroke-linejoin="round"></path>
<path d="M216.096 162.357C212.372 131.262 205.163 84.832 201.115 19.629C160.152 19.629 125.459 20.095 91.288 20.095C85.764 69.381 79.702 119.061 74.838 162.456C114.358 164.003 210.185 161.623 216.096 162.357Z" fill="#FAFBF9" stroke="#010101" stroke-width="1.5" stroke-linecap="round" stroke-linejoin="round"></path>
<path d="M174.412 20.835C177.261 67.645 181.025 115.653 184.622 162.412" stroke="#010101" stroke-width="1.5" stroke-linecap="round" stroke-linejoin="round"></path>
<path d="M188.208 19.644C192.441 71.403 197.496 126.16 198.902 143.358" stroke="#010101" stroke-width="1.5" stroke-linecap="round" stroke-linejoin="round"></path>
<path d="M184.933 161.608L198.902 143.358C198.902 143.358 209.696 156.119 216.096 162.357" stroke="#010101" stroke-width="1.5" stroke-linecap="round" stroke-linejoin="round"></path>
<path d="M113.756 34.641C113.575 40.922 113.602 47.209 113.835 53.489C113.922 55.837 114.047 58.227 114.86 60.432C116.072 63.721 118.768 66.339 121.912 67.889C125.056 69.439 128.619 69.99 132.124 69.954C137.934 69.895 144.208 67.895 147.301 62.977C148.956 60.345 149.517 57.174 149.755 54.074C150.265 47.412 150.532 43.307 150.228 34.635" stroke="#010101" stroke-width="1.5" stroke-linecap="round" stroke-linejoin="round"></path>
<path d="M150.144 37.0401C148.096 36.9051 148.048 35.4631 148.06 34.9351C148.079 34.0721 148.583 33.2271 149.352 32.8351C150.121 32.4431 151.125 32.5451 151.775 33.1131C152.425 33.6811 152.655 34.6921 152.281 35.4691C151.969 36.1171 151.476 37.1111 150.145 37.0391L150.144 37.0401Z" fill="#010101" stroke="#010101" stroke-width="1.5" stroke-linecap="round" stroke-linejoin="round"></path>
<path d="M113.641 36.858C111.593 36.723 111.545 35.281 111.557 34.753C111.576 33.89 112.08 33.045 112.849 32.653C113.618 32.261 114.622 32.363 115.272 32.931C115.922 33.499 116.152 34.51 115.778 35.287C115.466 35.935 114.973 36.929 113.642 36.857L113.641 36.858Z" fill="#010101" stroke="#010101" stroke-width="1.5" stroke-linecap="round" stroke-linejoin="round"></path>
<path d="M21.52 90.144C47.637 89.961 73.755 90.06 99.989 90.04C95.855 104.543 92.238 119.047 87.859 134.065C70.066 133.233 48.931 133.95 33.858 133.246C28.958 118.849 25.333 104.018 21.52 90.144Z" fill="white" stroke="#010101" stroke-width="1.5" stroke-linecap="round" stroke-linejoin="round"></path>
<path d="M21.623 90.521C19.971 85.302 18.682 81.331 17.278 76.942C16.521 74.576 14.616 72.759 12.222 72.097C8.32902 71.02 3.44802 69.45 0.749023 68.97" stroke="#010101" stroke-width="1.5" stroke-linecap="round" stroke-linejoin="round"></path>
<path d="M40.84 90.206C43.525 104.933 46.788 123.887 47.718 132.968L40.84 90.206Z" fill="white"></path>
<path d="M40.84 90.206C43.525 104.933 46.788 123.887 47.718 132.968" stroke="#010101" stroke-width="1.5" stroke-linecap="round" stroke-linejoin="round"></path>
<path d="M80.441 90.206C78.884 103.458 75.783 122.212 74.089 132.968L80.441 90.206Z" fill="white"></path>
<path d="M80.441 90.206C78.884 103.458 75.783 122.212 74.089 132.968" stroke="#010101" stroke-width="1.5" stroke-linecap="round" stroke-linejoin="round"></path>
<path d="M60.945 90.128C60.389 107.263 60.15 117.262 60.15 133.543L60.945 90.128Z" fill="white"></path>
<path d="M60.945 90.128C60.389 107.263 60.15 117.262 60.15 133.543" stroke="#010101" stroke-width="1.5" stroke-linecap="round" stroke-linejoin="round"></path>
<path d="M33.629 132.711C35.262 138.779 37.196 145.488 38.432 149.72C39.17 152.246 41.486 153.972 44.118 153.952C53.937 153.877 70.792 153.734 83.382 153.989" stroke="#010101" stroke-width="1.5" stroke-linecap="round" stroke-linejoin="round"></path>
<path d="M47.519 155.834C45.952 157.651 46.289 160.701 48.472 162.508C49.679 163.507 51.318 163.993 52.861 163.725C54.404 163.457 55.811 162.409 56.431 160.971C57.051 159.533 57.223 157.151 55.494 155.421C54.337 154.264 50.225 152.695 47.519 155.834Z" fill="#010101" stroke="#010101" stroke-width="1.5" stroke-linecap="round" stroke-linejoin="round"></path>
<path d="M71.256 155.834C69.689 157.651 70.026 160.701 72.209 162.508C73.416 163.507 75.055 163.993 76.598 163.725C78.141 163.457 79.548 162.409 80.168 160.971C80.788 159.533 80.96 157.151 79.231 155.421C78.074 154.264 73.962 152.695 71.256 155.834Z" fill="#010101" stroke="#010101" stroke-width="1.5" stroke-linecap="round" stroke-linejoin="round"></path>
<path d="M25.3091 104.229C54.5711 104.229 66.7191 103.422 96.2881 103.422L25.3091 104.229Z" fill="white"></path>
<path d="M25.3091 104.229C54.5711 104.229 66.7191 103.422 96.2881 103.422" stroke="#010101" stroke-width="1.5" stroke-linecap="round" stroke-linejoin="round"></path>
<path d="M30.09 119.596C45.683 118.747 63.721 119.203 91.657 118.666L30.09 119.596Z" fill="white"></path>
<path d="M30.09 119.596C45.683 118.747 63.721 119.203 91.657 118.666" stroke="#010101" stroke-width="1.5" stroke-linecap="round" stroke-linejoin="round"></path>
<path d="M172.579 64.199C174.248 62.821 176.387 62.177 178.467 61.577C195.355 56.708 212.479 52.654 229.757 49.432C230.205 49.348 230.682 49.268 231.105 49.438C231.832 49.73 232.091 50.607 232.26 51.372C234.181 60.092 236.017 68.831 237.77 77.587C237.905 78.26 238.028 79.006 237.677 79.596C237.305 80.222 236.531 80.458 235.827 80.643C221.013 84.538 210.649 88.056 194.428 92.321C190.818 93.27 187.879 93.695 184.146 93.654C179.887 93.606 169.063 90.073 162.335 87.728C159.471 86.73 158.38 83.26 160.153 80.798C164.528 74.721 171.565 65.038 172.581 64.199H172.579Z" fill="#050604" stroke="#010101" stroke-width="1.5" stroke-linecap="round" stroke-linejoin="round"></path>
<path d="M165.069 85.43C163.021 85.295 162.973 83.853 162.985 83.325C163.004 82.462 163.508 81.617 164.277 81.225C165.046 80.833 166.05 80.935 166.7 81.503C167.35 82.071 167.58 83.082 167.206 83.859C166.894 84.507 166.401 85.501 165.07 85.429L165.069 85.43Z" fill="#010101" stroke="#010101" stroke-width="1.5" stroke-linecap="round" stroke-linejoin="round"></path>
<path d="M164.364 83.212C161.413 84.575 158.438 85.99 155.948 88.08C153.458 90.17 151.467 93.04 151.095 96.27C150.736 99.385 151.888 102.453 153.02 105.377" stroke="#010101" stroke-width="1.5" stroke-linecap="round" stroke-linejoin="round"></path>
<path d="M194.566 84.494C194.774 77.48 195.601 70.485 197.034 63.616C200.182 69.482 203.119 76.205 206.331 82.19" stroke="#010101" stroke-width="1.5" stroke-linecap="round" stroke-linejoin="round"></path>
<path d="M195.428 76.441C197.82 75.849 199.666 75.536 202.56 74.721" stroke="#010101" stroke-width="1.5" stroke-linecap="round" stroke-linejoin="round"></path>
<path d="M206.871 61.751C208.363 67.852 209.722 73.986 210.946 80.147C213.756 79.563 216.53 78.808 219.249 77.888" stroke="#010101" stroke-width="1.5" stroke-linecap="round" stroke-linejoin="round"></path>
<path d="M229.212 75.434C227.239 76.079 225.238 76.639 223.216 77.111C221.776 70.989 220.337 64.867 218.93 58.384C221.338 57.679 223.778 57.084 226.24 56.602" stroke="#010101" stroke-width="1.5" stroke-linecap="round" stroke-linejoin="round"></path>
<path d="M221.494 67.057C223.243 66.701 224.97 66.238 226.662 65.672" stroke="#010101" stroke-width="1.5" stroke-linecap="round" stroke-linejoin="round"></path>
<path d="M185.513 67.057C183.274 66.636 180.949 66.947 179.293 68.804C177.637 70.661 177.403 73.894 179.31 75.492C181.566 77.383 185.154 76.104 187.798 77.399C189.231 78.101 190.252 79.581 190.399 81.17C190.546 82.759 189.816 84.401 188.537 85.355C187.503 86.126 186.197 86.438 184.915 86.581C183.508 86.738 180.437 85.769 179.819 84.495" stroke="#010101" stroke-width="1.5" stroke-linecap="round" stroke-linejoin="round"></path>
</g>
<defs>
<clipPath id="clip0_35_3067">
<rect width="263.27" height="164.548" fill="white"></rect>
</clipPath>
</defs>
</svg>