<svg width="273" height="197" viewBox="0 0 273 197" fill="none" xmlns="http://www.w3.org/2000/svg" style="width: 100%; height: 100%;">
<g clip-path="url(#clip0_35_3584)">
<path d="M189.281 148.457C195.641 137.598 195.085 137.114 201.446 126.255C205.899 118.653 210.844 110.606 219.874 106.365C224.746 104.077 231.465 103.275 235.773 106.247C245.825 113.18 238.977 131.526 229.338 150.556C214.15 150.75 202.871 149.288 189.281 148.459V148.457Z" fill="#55D087" stroke="#010101" stroke-width="1.5" stroke-linecap="round" stroke-linejoin="round"></path>
<path d="M229.014 109.804C223.758 126.403 219.364 133.669 211.726 149.648" stroke="#010101" stroke-width="1.5" stroke-linecap="round" stroke-linejoin="round"></path>
<path d="M225.606 150.51C236.553 134.254 242.059 123.133 257.317 118.805C260.308 117.957 263.758 117.608 266.581 118.796C269.774 120.14 272.28 123.13 271.835 125.997C270.129 136.991 263.438 142.953 259.345 150.837C245.653 150.66 235.961 150.644 225.606 150.51Z" fill="#55D087" stroke="#010101" stroke-width="1.5" stroke-linecap="round" stroke-linejoin="round"></path>
<path d="M262.903 120.55C255.338 133.493 253.549 137.7 243.787 149.649" stroke="#010101" stroke-width="1.5" stroke-linecap="round" stroke-linejoin="round"></path>
<path d="M49.5 59.7C48.063 54.854 46.649 49.515 48.688 44.891C49.638 42.738 51.265 40.954 53.014 39.378C61.276 31.933 136.427 6.49601 149.327 3.09001C156.106 1.30001 162.583 3.80701 166.69 12.135C174.783 28.546 200.549 112.3 209.44 149.685C210.08 152.376 210.703 155.264 209.714 157.847C208.776 160.298 206.55 162.01 204.286 163.337C200.673 165.455 196.724 166.925 192.771 168.308C176.778 173.905 126.228 192.358 109.559 195.399C106.488 195.959 103.239 196.462 100.31 195.382C95.686 193.677 93.315 188.67 91.435 184.114C79.979 156.336 49.096 59.101 49.499 59.699L49.5 59.7Z" fill="#FAFBF9" stroke="#010101" stroke-width="1.5" stroke-linecap="round" stroke-linejoin="round"></path>
<path d="M59.4029 63.426C58.1989 59.2421 56.5449 53.736 58.2739 49.737C59.0799 47.8741 60.4569 46.33 61.9359 44.966C68.9239 38.518 135.93 14.899 146.825 11.932C150.276 10.992 154.946 9.57405 160.138 18.168C167.553 30.443 192.352 113.788 199.68 145.613C200.215 147.937 200.736 150.431 199.896 152.665C199.1 154.785 197.217 156.268 195.304 157.419C192.251 159.255 188.914 160.534 185.576 161.736C172.066 166.603 125.838 184.14 111.762 186.799C109.168 187.289 106.426 187.73 103.955 186.802C100.055 185.337 98.0629 181.016 96.4849 177.082C86.8669 153.101 59.0639 62.91 59.4029 63.426Z" fill="white" stroke="#010101" stroke-width="1.5" stroke-linecap="round" stroke-linejoin="round"></path>
<path d="M37.78 0.75C40.561 7.348 43.342 13.945 46.123 20.543" stroke="#010101" stroke-width="1.5" stroke-linecap="round" stroke-linejoin="round"></path>
<path d="M0.75 34.511C9.525 37.113 18.047 40.565 26.16 44.801" stroke="#010101" stroke-width="1.5" stroke-linecap="round" stroke-linejoin="round"></path>
<path d="M6.84399 79.866C15.19 77.132 23.536 74.399 31.881 71.665C31.314 72.034 30.746 72.403 30.179 72.773" stroke="#010101" stroke-width="1.5" stroke-linecap="round" stroke-linejoin="round"></path>
<path d="M78.9859 17.711C77.1129 18.601 76.1299 20.682 76.6719 22.683C77.9939 27.56 79.8979 33.722 81.1999 37.616C81.4429 38.344 81.7159 39.108 82.3039 39.601C83.3179 40.452 84.8279 40.186 86.1129 39.864C100.572 36.246 114.777 31.618 128.592 26.025C129.273 25.749 130.001 25.43 130.366 24.793C130.708 24.195 130.648 23.457 130.562 22.774C129.884 17.397 128.198 12.148 125.618 7.38198C124.951 6.14898 124.161 4.88698 122.915 4.24398C121.284 3.40298 119.315 3.82898 117.543 4.30598C104.779 7.74598 91.8239 11.61 78.9849 17.71L78.9859 17.711Z" fill="#FAFBF9" stroke="#010101" stroke-width="1.5" stroke-linecap="round" stroke-linejoin="round"></path>
<path d="M107.565 62.217C122.402 56.002 137.239 49.788 152.076 43.573C152.297 43.48 152.559 43.319 152.524 43.082C152.489 42.845 152.003 43.028 152.201 43.163" stroke="#010101" stroke-width="1.5" stroke-linecap="round" stroke-linejoin="round"></path>
<path d="M118.909 98.4861C134.649 93.3001 150.194 87.5211 165.499 81.1641" stroke="#010101" stroke-width="1.5" stroke-linecap="round" stroke-linejoin="round"></path>
<path d="M161.659 91.6339C163.58 92.7279 165.466 93.8809 167.314 95.0939L177.51 88.1769C171.237 85.1839 167.855 82.1649 161.904 78.3589C161.966 81.8259 161.818 87.2129 161.659 91.6339Z" fill="white" stroke="#010101" stroke-width="1.5" stroke-linecap="round" stroke-linejoin="round"></path>
<path d="M205.878 39.9229C207.75 36.5439 209.58 33.1779 211.288 29.8519C208.666 27.7209 200.545 21.9279 197.207 20.5439C194.956 23.7329 192.74 26.9989 190.542 30.2949C192.923 31.7869 195.944 33.6889 198.968 35.5919L205.878 39.9229Z" fill="#010101" stroke="#010101" stroke-width="1.5" stroke-linecap="round" stroke-linejoin="round"></path>
<path d="M190.535 30.3049C180.211 45.7849 170.503 62.2759 161.904 78.3609C166.453 81.0219 177.51 88.1789 177.51 88.1789C186.414 72.7259 196.904 56.1169 205.872 39.9339C203.79 38.6259 201.382 37.1109 198.968 35.5919L190.535 30.3049Z" fill="#FAFBF9" stroke="#010101" stroke-width="1.5" stroke-linecap="round" stroke-linejoin="round"></path>
<path d="M177.51 88.178C177.51 88.178 166.453 81.021 161.904 78.36C167.855 82.166 171.237 85.185 177.51 88.178Z" fill="#FAFBF9" stroke="#010101" stroke-width="1.5" stroke-linecap="round" stroke-linejoin="round"></path>
<path d="M198.968 35.591C201.381 37.11 203.79 38.626 205.872 39.933C205.874 39.929 205.876 39.926 205.878 39.922L198.968 35.591Z" fill="#FAFBF9" stroke="#010101" stroke-width="1.5" stroke-linecap="round" stroke-linejoin="round"></path>
<path d="M190.542 30.2939C190.542 30.2939 190.537 30.3009 190.535 30.3049L198.968 35.5909C195.944 33.6879 192.923 31.7859 190.542 30.2939Z" fill="#FAFBF9" stroke="#010101" stroke-width="1.5" stroke-linecap="round" stroke-linejoin="round"></path>
<path d="M161.349 99.142L167.314 95.095C165.467 93.881 163.58 92.728 161.659 91.635C161.509 95.821 161.349 99.142 161.349 99.142Z" fill="#010101" stroke="#010101" stroke-width="1.5" stroke-linecap="round" stroke-linejoin="round"></path>
<path d="M135.826 135.486C150.118 129.639 164.643 124.361 179.354 119.668" stroke="#010101" stroke-width="1.5" stroke-linecap="round" stroke-linejoin="round"></path>
<path d="M114.756 134.154C114.64 133.858 114.3 133.72 114.011 133.852C111.734 134.893 99.434 139.74 99.169 140.398C98.954 140.933 101.941 149.519 104.952 155.341C105.079 155.587 105.351 155.721 105.62 155.657C110.828 154.419 119.636 150.515 120.818 149.986C120.895 149.952 120.927 149.865 120.896 149.787L114.756 134.153V134.154Z" fill="#E3E3FF" stroke="#010101" stroke-width="1.5" stroke-linecap="round" stroke-linejoin="round"></path>
<path d="M105.256 143.853L113.44 148.266C113.44 148.266 117.746 136.734 120.951 130.378" stroke="#010101" stroke-width="1.5" stroke-linecap="round" stroke-linejoin="round"></path>
<path d="M99.158 98.0021C99.042 97.7061 98.702 97.5681 98.413 97.7001C96.136 98.7411 83.836 103.588 83.571 104.246C83.356 104.781 86.343 113.367 89.354 119.189C89.481 119.435 89.753 119.569 90.022 119.505C95.23 118.267 104.038 114.363 105.22 113.834C105.297 113.8 105.329 113.713 105.298 113.635L99.158 98.0021Z" fill="#E3E3FF" stroke="#010101" stroke-width="1.5" stroke-linecap="round" stroke-linejoin="round"></path>
<path d="M89.658 107.702L97.842 112.115C97.842 112.115 102.148 100.583 105.353 94.2271" stroke="#010101" stroke-width="1.5" stroke-linecap="round" stroke-linejoin="round"></path>
<path d="M86.2229 61.851C86.1069 61.555 85.7669 61.417 85.4779 61.549C83.2009 62.59 70.901 67.437 70.636 68.095C70.421 68.63 73.4079 77.216 76.4189 83.038C76.5459 83.284 76.8179 83.4179 77.0869 83.354C82.2949 82.1159 91.103 78.212 92.285 77.683C92.362 77.649 92.3939 77.562 92.3629 77.484L86.2229 61.85V61.851Z" fill="#E3E3FF" stroke="#010101" stroke-width="1.5" stroke-linecap="round" stroke-linejoin="round"></path>
<path d="M76.7229 71.55L84.9069 75.9629C84.9069 75.9629 89.2129 64.431 92.4179 58.075" stroke="#010101" stroke-width="1.5" stroke-linecap="round" stroke-linejoin="round"></path>
</g>
<defs>
<clipPath id="clip0_35_3584">
<rect width="272.636" height="196.769" fill="white"></rect>
</clipPath>
</defs>
</svg>