<svg id="visual" viewBox="0 0 900 600" width="900" height="600" xmlns="http://www.w3.org/2000/svg" xmlns:xlink="http://www.w3.org/1999/xlink" version="1.1"><path d="M460 600L470 583.3C480 566.7 500 533.3 510.3 500C520.7 466.7 521.3 433.3 530.3 400C539.3 366.7 556.7 333.3 555.8 300C555 266.7 536 233.3 524.2 200C512.3 166.7 507.7 133.3 497.3 100C487 66.7 471 33.3 463 16.7L455 0L900 0L900 16.7C900 33.3 900 66.7 900 100C900 133.3 900 166.7 900 200C900 233.3 900 266.7 900 300C900 333.3 900 366.7 900 400C900 433.3 900 466.7 900 500C900 533.3 900 566.7 900 583.3L900 600Z" fill="#FAFBF9" stroke-linecap="round" stroke-linejoin="miter"></path></svg>